<svg width="60" height="61" viewBox="0 0 60 61" fill="none" xmlns="http://www.w3.org/2000/svg">
<path d="M60 11.2041V17.4286H0V11.2041C0 9.13755 1.675 7.46939 3.75 7.46939H7.5C7.5 3.28653 9.7 0 12.5 0C15.3 0 17.5 3.28653 17.5 7.46939H15C15 4.61857 13.675 2.4898 12.5 2.4898C11.325 2.4898 10 4.61857 10 7.46939H15C15 10.3202 13.675 12.449 12.5 12.449C11.8125 12.449 11.25 13.0092 11.25 13.6939C11.25 14.3786 11.8125 14.9388 12.5 14.9388C15.3 14.9388 17.5 11.6522 17.5 7.46939H25C25 3.28653 27.2 0 30 0C32.8 0 35 3.28653 35 7.46939H32.5C32.5 4.61857 31.175 2.4898 30 2.4898C28.825 2.4898 27.5 4.61857 27.5 7.46939H32.5C32.5 10.3202 31.175 12.449 30 12.449C29.3125 12.449 28.75 13.0092 28.75 13.6939C28.75 14.3786 29.3125 14.9388 30 14.9388C32.8 14.9388 35 11.6522 35 7.46939H42.5C42.5 3.28653 44.7 0 47.5 0C50.3 0 52.5 3.28653 52.5 7.46939H50C50 4.61857 48.675 2.4898 47.5 2.4898C46.325 2.4898 45 4.61857 45 7.46939H50C50 10.3202 48.675 12.449 47.5 12.449C46.8125 12.449 46.25 13.0092 46.25 13.6939C46.25 14.3786 46.8125 14.9388 47.5 14.9388C50.3 14.9388 52.5 11.6522 52.5 7.46939H56.25C58.325 7.46939 60 9.13755 60 11.2041ZM60 19.9184V57.2653C60 59.3318 58.325 61 56.25 61H3.75C1.675 61 0 59.3318 0 57.2653V19.9184H60ZM17.5 37.9694C20.2625 37.9694 22.5 35.741 22.5 32.9898V28.0102C22.5 25.259 20.2625 23.0306 17.5 23.0306H13.75C13.0625 23.0306 12.5 23.5908 12.5 24.2755V36.7245C12.5 37.4092 13.0625 37.9694 13.75 37.9694H17.5ZM26.25 56.6429C26.25 55.9582 25.6875 55.398 25 55.398H23.75V41.7041C23.75 41.0194 23.1875 40.4592 22.5 40.4592H20C19.3125 40.4592 18.75 41.0194 18.75 41.7041C18.75 42.3888 19.3125 42.949 20 42.949H21.25V55.398H20C19.3125 55.398 18.75 55.9582 18.75 56.6429C18.75 57.3276 19.3125 57.8878 20 57.8878H25C25.6875 57.8878 26.25 57.3276 26.25 56.6429ZM26.25 37.9694H33.75C34.4375 37.9694 35 37.4092 35 36.7245C35 36.0398 34.4375 35.4796 33.75 35.4796H27.5V31.7449H32.5C33.1875 31.7449 33.75 31.1847 33.75 30.5C33.75 29.8153 33.1875 29.2551 32.5 29.2551H27.5V25.5204H33.75C34.4375 25.5204 35 24.9602 35 24.2755C35 23.5908 34.4375 23.0306 33.75 23.0306H26.25C25.5625 23.0306 25 23.5908 25 24.2755V36.7245C25 37.4092 25.5625 37.9694 26.25 37.9694ZM41.25 51.6633C41.25 50.9786 40.6875 50.4184 40 50.4184H38.75V41.7041C38.75 40.509 37.225 39.9986 36.5 40.9571L29 50.9163C28.3875 51.738 28.975 52.9082 30 52.9082H36.25V56.6429C36.25 57.3276 36.8125 57.8878 37.5 57.8878C38.1875 57.8878 38.75 57.3276 38.75 56.6429V52.9082H40C40.6875 52.9082 41.25 52.348 41.25 51.6633ZM40 32.9898V28.0102C40 26.6408 41.125 25.5204 42.5 25.5204C43.875 25.5204 45 26.6408 45 28.0102C45 28.6949 45.5625 29.2551 46.25 29.2551C46.9375 29.2551 47.5 28.6949 47.5 28.0102C47.5 25.259 45.2625 23.0306 42.5 23.0306C39.7375 23.0306 37.5 25.259 37.5 28.0102V32.9898C37.5 35.741 39.7375 37.9694 42.5 37.9694C45.2625 37.9694 47.5 35.741 47.5 32.9898C47.5 32.3051 46.9375 31.7449 46.25 31.7449C45.5625 31.7449 45 32.3051 45 32.9898C45 34.3592 43.875 35.4796 42.5 35.4796C41.125 35.4796 40 34.3592 40 32.9898ZM36.25 50.4184V45.4388L32.5 50.4184H36.25ZM17.5 25.5204H15V35.4796H17.5C18.875 35.4796 20 34.3592 20 32.9898V28.0102C20 26.6408 18.875 25.5204 17.5 25.5204Z" fill="#82BFAB"/>
</svg>
