<svg width="15" height="15" viewBox="0 0 15 15" fill="none" xmlns="http://www.w3.org/2000/svg">
<g clip-path="url(#clip0_33_501)">
<path d="M8.81836 7.5C8.81836 8.22807 8.22807 8.81836 7.5 8.81836C6.77193 8.81836 6.18164 8.22807 6.18164 7.5C6.18164 6.77193 6.77193 6.18164 7.5 6.18164C8.22807 6.18164 8.81836 6.77193 8.81836 7.5Z" fill="#82BFAB"/>
<path d="M9.72656 3.51562H5.27344C4.30412 3.51562 3.51562 4.30412 3.51562 5.27344V9.72656C3.51562 10.6959 4.30412 11.4844 5.27344 11.4844H9.72656C10.6959 11.4844 11.4844 10.6959 11.4844 9.72656V5.27344C11.4844 4.30412 10.6959 3.51562 9.72656 3.51562ZM7.5 9.69727C6.28841 9.69727 5.30273 8.71159 5.30273 7.5C5.30273 6.28841 6.28841 5.30273 7.5 5.30273C8.71159 5.30273 9.69727 6.28841 9.69727 7.5C9.69727 8.71159 8.71159 9.69727 7.5 9.69727ZM10.0195 5.41992C9.7768 5.41992 9.58008 5.2232 9.58008 4.98047C9.58008 4.73774 9.7768 4.54102 10.0195 4.54102C10.2623 4.54102 10.459 4.73774 10.459 4.98047C10.459 5.2232 10.2623 5.41992 10.0195 5.41992Z" fill="#82BFAB"/>
<path d="M11.0449 0H3.95508C1.77429 0 0 1.77429 0 3.95508V11.0449C0 13.2257 1.77429 15 3.95508 15H11.0449C13.2257 15 15 13.2257 15 11.0449V3.95508C15 1.77429 13.2257 0 11.0449 0ZM12.3633 9.72656C12.3633 11.1804 11.1804 12.3633 9.72656 12.3633H5.27344C3.81958 12.3633 2.63672 11.1804 2.63672 9.72656V5.27344C2.63672 3.81958 3.81958 2.63672 5.27344 2.63672H9.72656C11.1804 2.63672 12.3633 3.81958 12.3633 5.27344V9.72656Z" fill="#82BFAB"/>
</g>
<defs>
<clipPath id="clip0_33_501">
<rect width="15" height="15" fill="white"/>
</clipPath>
</defs>
</svg>
