<svg width="15" height="15" viewBox="0 0 15 15" fill="none" xmlns="http://www.w3.org/2000/svg">
<g clip-path="url(#clip0_33_507)">
<path d="M13.6082 0H1.39176C1.02264 0 0.668643 0.146632 0.407637 0.407637C0.146632 0.668643 0 1.02264 0 1.39176L0 13.6082C0 13.9774 0.146632 14.3314 0.407637 14.5924C0.668643 14.8534 1.02264 15 1.39176 15H13.6082C13.9774 15 14.3314 14.8534 14.5924 14.5924C14.8534 14.3314 15 13.9774 15 13.6082V1.39176C15 1.02264 14.8534 0.668643 14.5924 0.407637C14.3314 0.146632 13.9774 0 13.6082 0ZM5.11364 11.8705C5.11375 11.912 5.10565 11.9533 5.08981 11.9917C5.07397 12.0302 5.0507 12.0651 5.02133 12.0946C4.99195 12.124 4.95706 12.1474 4.91864 12.1634C4.88022 12.1793 4.83904 12.1875 4.79744 12.1875H3.45C3.40833 12.1876 3.36706 12.1795 3.32854 12.1636C3.29002 12.1477 3.25503 12.1244 3.22556 12.0949C3.1961 12.0654 3.17275 12.0304 3.15686 11.9919C3.14097 11.9534 3.13284 11.9121 3.13295 11.8705V6.22159C3.13295 6.13751 3.16636 6.05686 3.22582 5.99741C3.28527 5.93795 3.36591 5.90455 3.45 5.90455H4.79744C4.88138 5.90477 4.9618 5.93827 5.02108 5.99771C5.08035 6.05714 5.11364 6.13765 5.11364 6.22159V11.8705ZM4.1233 5.36932C3.87045 5.36932 3.62328 5.29434 3.41305 5.15387C3.20282 5.01339 3.03896 4.81373 2.9422 4.58013C2.84544 4.34654 2.82012 4.08949 2.86945 3.8415C2.91878 3.59352 3.04054 3.36573 3.21932 3.18694C3.39811 3.00815 3.6259 2.88639 3.87389 2.83706C4.12188 2.78774 4.37892 2.81305 4.61252 2.90981C4.84612 3.00657 5.04578 3.17043 5.18625 3.38066C5.32673 3.5909 5.4017 3.83806 5.4017 4.09091C5.4017 4.42996 5.26702 4.75513 5.02727 4.99488C4.78752 5.23463 4.46235 5.36932 4.1233 5.36932ZM12.1568 11.8926C12.1569 11.9309 12.1495 11.9689 12.1349 12.0043C12.1203 12.0397 12.0988 12.0719 12.0717 12.099C12.0446 12.1261 12.0124 12.1475 11.977 12.1621C11.9416 12.1767 11.9037 12.1842 11.8653 12.1841H10.4165C10.3782 12.1842 10.3402 12.1767 10.3048 12.1621C10.2694 12.1475 10.2372 12.1261 10.2101 12.099C10.183 12.0719 10.1616 12.0397 10.147 12.0043C10.1323 11.9689 10.1249 11.9309 10.125 11.8926V9.24631C10.125 8.85085 10.2409 7.51449 9.09119 7.51449C8.20057 7.51449 8.01903 8.42898 7.98324 8.83977V11.896C7.98325 11.9726 7.95312 12.0461 7.89938 12.1006C7.84563 12.1552 7.77259 12.1864 7.69602 12.1875H6.29659C6.25835 12.1875 6.22049 12.18 6.18518 12.1653C6.14986 12.1506 6.11778 12.1292 6.09079 12.1021C6.06379 12.075 6.0424 12.0429 6.02784 12.0075C6.01329 11.9721 6.00585 11.9343 6.00597 11.896V6.19688C6.00585 6.15864 6.01329 6.12075 6.02784 6.0854C6.0424 6.05004 6.06379 6.0179 6.09079 5.99082C6.11778 5.96374 6.14986 5.94226 6.18518 5.9276C6.22049 5.91294 6.25835 5.9054 6.29659 5.9054H7.69602C7.77333 5.9054 7.84747 5.93611 7.90213 5.99077C7.95679 6.04543 7.9875 6.11957 7.9875 6.19688V6.68949C8.31818 6.19261 8.80824 5.8108 9.85398 5.8108C12.1705 5.8108 12.1551 7.97386 12.1551 9.16193L12.1568 11.8926Z" fill="#82BFAB"/>
</g>
<defs>
<clipPath id="clip0_33_507">
<rect width="15" height="15" fill="white"/>
</clipPath>
</defs>
</svg>
